<?xml version="1.0" encoding="UTF-8" standalone="no"?>
<!DOCTYPE svg PUBLIC "-//W3C//DTD SVG 1.1//EN"
 "http://www.w3.org/Graphics/SVG/1.1/DTD/svg11.dtd">
<!-- Generated by graphviz version 2.47.0 (20210316.0004)
 -->
<!-- Title: G Pages: 1 -->
<svg width="859pt" height="988pt"
 viewBox="0.00 0.00 859.20 988.20" xmlns="http://www.w3.org/2000/svg" xmlns:xlink="http://www.w3.org/1999/xlink">
<g id="graph0" class="graph" transform="scale(1 1) rotate(0) translate(21.6 966.6)">
<title>G</title>
<polygon fill="#111111" stroke="transparent" points="-21.6,21.6 -21.6,-966.6 837.6,-966.6 837.6,21.6 -21.6,21.6"/>
<!-- Audio.js -->
<g id="node1" class="node">
<title>Audio.js</title>
<path fill="none" stroke="#c6c5fe" d="M191.33,-392C191.33,-392 141.67,-392 141.67,-392 137.83,-392 134,-388.17 134,-384.33 134,-384.33 134,-376.67 134,-376.67 134,-372.83 137.83,-369 141.67,-369 141.67,-369 191.33,-369 191.33,-369 195.17,-369 199,-372.83 199,-376.67 199,-376.67 199,-384.33 199,-384.33 199,-388.17 195.17,-392 191.33,-392"/>
<text text-anchor="middle" x="166.5" y="-376.8" font-family="Arial" font-size="14.00" fill="#c6c5fe">Audio.js</text>
</g>
<!-- ComponentNotice.js -->
<g id="node2" class="node">
<title>ComponentNotice.js</title>
<path fill="none" stroke="#cfffac" d="M402.33,-392C402.33,-392 278.67,-392 278.67,-392 274.83,-392 271,-388.17 271,-384.33 271,-384.33 271,-376.67 271,-376.67 271,-372.83 274.83,-369 278.67,-369 278.67,-369 402.33,-369 402.33,-369 406.17,-369 410,-372.83 410,-376.67 410,-376.67 410,-384.33 410,-384.33 410,-388.17 406.17,-392 402.33,-392"/>
<text text-anchor="middle" x="340.5" y="-376.8" font-family="Arial" font-size="14.00" fill="#cfffac">ComponentNotice.js</text>
</g>
<!-- Audio.js&#45;&gt;ComponentNotice.js -->
<g id="edge1" class="edge">
<title>Audio.js&#45;&gt;ComponentNotice.js</title>
<path fill="none" stroke="#757575" d="M199.05,-380.5C216.38,-380.5 238.72,-380.5 260.47,-380.5"/>
<polygon fill="#757575" stroke="#757575" points="260.73,-384 270.73,-380.5 260.73,-377 260.73,-384"/>
</g>
<!-- BeforeAfterImage.js -->
<g id="node3" class="node">
<title>BeforeAfterImage.js</title>
<path fill="none" stroke="#cfffac" d="M227.33,-884C227.33,-884 105.67,-884 105.67,-884 101.83,-884 98,-880.17 98,-876.33 98,-876.33 98,-868.67 98,-868.67 98,-864.83 101.83,-861 105.67,-861 105.67,-861 227.33,-861 227.33,-861 231.17,-861 235,-864.83 235,-868.67 235,-868.67 235,-876.33 235,-876.33 235,-880.17 231.17,-884 227.33,-884"/>
<text text-anchor="middle" x="166.5" y="-868.8" font-family="Arial" font-size="14.00" fill="#cfffac">BeforeAfterImage.js</text>
</g>
<!-- BgImageParallax.js -->
<g id="node4" class="node">
<title>BgImageParallax.js</title>
<path fill="none" stroke="#cfffac" d="M225.83,-843C225.83,-843 107.17,-843 107.17,-843 103.33,-843 99.5,-839.17 99.5,-835.33 99.5,-835.33 99.5,-827.67 99.5,-827.67 99.5,-823.83 103.33,-820 107.17,-820 107.17,-820 225.83,-820 225.83,-820 229.67,-820 233.5,-823.83 233.5,-827.67 233.5,-827.67 233.5,-835.33 233.5,-835.33 233.5,-839.17 229.67,-843 225.83,-843"/>
<text text-anchor="middle" x="166.5" y="-827.8" font-family="Arial" font-size="14.00" fill="#cfffac">BgImageParallax.js</text>
</g>
<!-- Collapse.js -->
<g id="node5" class="node">
<title>Collapse.js</title>
<path fill="none" stroke="#c6c5fe" d="M200.33,-269C200.33,-269 132.67,-269 132.67,-269 128.83,-269 125,-265.17 125,-261.33 125,-261.33 125,-253.67 125,-253.67 125,-249.83 128.83,-246 132.67,-246 132.67,-246 200.33,-246 200.33,-246 204.17,-246 208,-249.83 208,-253.67 208,-253.67 208,-261.33 208,-261.33 208,-265.17 204.17,-269 200.33,-269"/>
<text text-anchor="middle" x="166.5" y="-253.8" font-family="Arial" font-size="14.00" fill="#c6c5fe">Collapse.js</text>
</g>
<!-- Collapse.js&#45;&gt;ComponentNotice.js -->
<g id="edge2" class="edge">
<title>Collapse.js&#45;&gt;ComponentNotice.js</title>
<path fill="none" stroke="#757575" d="M208.09,-266.73C217.3,-269.74 226.78,-273.6 235,-278.5 271.88,-300.48 305.7,-338.02 324.37,-360.91"/>
<polygon fill="#757575" stroke="#757575" points="321.78,-363.28 330.76,-368.91 327.25,-358.91 321.78,-363.28"/>
</g>
<!-- Disqus.js -->
<g id="node6" class="node">
<title>Disqus.js</title>
<path fill="none" stroke="#cfffac" d="M194.33,-761C194.33,-761 138.67,-761 138.67,-761 134.83,-761 131,-757.17 131,-753.33 131,-753.33 131,-745.67 131,-745.67 131,-741.83 134.83,-738 138.67,-738 138.67,-738 194.33,-738 194.33,-738 198.17,-738 202,-741.83 202,-745.67 202,-745.67 202,-753.33 202,-753.33 202,-757.17 198.17,-761 194.33,-761"/>
<text text-anchor="middle" x="166.5" y="-745.8" font-family="Arial" font-size="14.00" fill="#cfffac">Disqus.js</text>
</g>
<!-- DisqusComment.js -->
<g id="node7" class="node">
<title>DisqusComment.js</title>
<path fill="none" stroke="#cfffac" d="M224.33,-720C224.33,-720 108.67,-720 108.67,-720 104.83,-720 101,-716.17 101,-712.33 101,-712.33 101,-704.67 101,-704.67 101,-700.83 104.83,-697 108.67,-697 108.67,-697 224.33,-697 224.33,-697 228.17,-697 232,-700.83 232,-704.67 232,-704.67 232,-712.33 232,-712.33 232,-716.17 228.17,-720 224.33,-720"/>
<text text-anchor="middle" x="166.5" y="-704.8" font-family="Arial" font-size="14.00" fill="#cfffac">DisqusComment.js</text>
</g>
<!-- Gallery/Gallery.js -->
<g id="node8" class="node">
<title>Gallery/Gallery.js</title>
<path fill="none" stroke="#c6c5fe" d="M392.83,-925C392.83,-925 288.17,-925 288.17,-925 284.33,-925 280.5,-921.17 280.5,-917.33 280.5,-917.33 280.5,-909.67 280.5,-909.67 280.5,-905.83 284.33,-902 288.17,-902 288.17,-902 392.83,-902 392.83,-902 396.67,-902 400.5,-905.83 400.5,-909.67 400.5,-909.67 400.5,-917.33 400.5,-917.33 400.5,-921.17 396.67,-925 392.83,-925"/>
<text text-anchor="middle" x="340.5" y="-909.8" font-family="Arial" font-size="14.00" fill="#c6c5fe">Gallery/Gallery.js</text>
</g>
<!-- Gallery/GalleryItem.js -->
<g id="node9" class="node">
<title>Gallery/GalleryItem.js</title>
<path fill="none" stroke="#c6c5fe" d="M598.33,-945C598.33,-945 465.67,-945 465.67,-945 461.83,-945 458,-941.17 458,-937.33 458,-937.33 458,-929.67 458,-929.67 458,-925.83 461.83,-922 465.67,-922 465.67,-922 598.33,-922 598.33,-922 602.17,-922 606,-925.83 606,-929.67 606,-929.67 606,-937.33 606,-937.33 606,-941.17 602.17,-945 598.33,-945"/>
<text text-anchor="middle" x="532" y="-929.8" font-family="Arial" font-size="14.00" fill="#c6c5fe">Gallery/GalleryItem.js</text>
</g>
<!-- Gallery/Gallery.js&#45;&gt;Gallery/GalleryItem.js -->
<g id="edge3" class="edge">
<title>Gallery/Gallery.js&#45;&gt;Gallery/GalleryItem.js</title>
<path fill="none" stroke="#757575" d="M400.68,-919.75C415.56,-921.32 431.8,-923.03 447.62,-924.7"/>
<polygon fill="#757575" stroke="#757575" points="447.62,-928.22 457.93,-925.79 448.35,-921.26 447.62,-928.22"/>
</g>
<!-- Gallery/GalleryLightbox.js -->
<g id="node10" class="node">
<title>Gallery/GalleryLightbox.js</title>
<path fill="none" stroke="#c6c5fe" d="M610.33,-904C610.33,-904 453.67,-904 453.67,-904 449.83,-904 446,-900.17 446,-896.33 446,-896.33 446,-888.67 446,-888.67 446,-884.83 449.83,-881 453.67,-881 453.67,-881 610.33,-881 610.33,-881 614.17,-881 618,-884.83 618,-888.67 618,-888.67 618,-896.33 618,-896.33 618,-900.17 614.17,-904 610.33,-904"/>
<text text-anchor="middle" x="532" y="-888.8" font-family="Arial" font-size="14.00" fill="#c6c5fe">Gallery/GalleryLightbox.js</text>
</g>
<!-- Gallery/Gallery.js&#45;&gt;Gallery/GalleryLightbox.js -->
<g id="edge4" class="edge">
<title>Gallery/Gallery.js&#45;&gt;Gallery/GalleryLightbox.js</title>
<path fill="none" stroke="#757575" d="M400.68,-906.94C411.88,-905.7 423.85,-904.37 435.84,-903.05"/>
<polygon fill="#757575" stroke="#757575" points="436.33,-906.51 445.89,-901.93 435.56,-899.55 436.33,-906.51"/>
</g>
<!-- Gallery/GalleryLoader.js -->
<g id="node11" class="node">
<title>Gallery/GalleryLoader.js</title>
<path fill="none" stroke="#cfffac" d="M808.33,-945C808.33,-945 661.67,-945 661.67,-945 657.83,-945 654,-941.17 654,-937.33 654,-937.33 654,-929.67 654,-929.67 654,-925.83 657.83,-922 661.67,-922 661.67,-922 808.33,-922 808.33,-922 812.17,-922 816,-925.83 816,-929.67 816,-929.67 816,-937.33 816,-937.33 816,-941.17 812.17,-945 808.33,-945"/>
<text text-anchor="middle" x="735" y="-929.8" font-family="Arial" font-size="14.00" fill="#cfffac">Gallery/GalleryLoader.js</text>
</g>
<!-- Gallery/GalleryItem.js&#45;&gt;Gallery/GalleryLoader.js -->
<g id="edge5" class="edge">
<title>Gallery/GalleryItem.js&#45;&gt;Gallery/GalleryLoader.js</title>
<path fill="none" stroke="#757575" d="M606.13,-933.5C618.36,-933.5 631.16,-933.5 643.75,-933.5"/>
<polygon fill="#757575" stroke="#757575" points="643.79,-937 653.79,-933.5 643.79,-930 643.79,-937"/>
</g>
<!-- Gallery/GalleryLightbox.js&#45;&gt;Gallery/GalleryLoader.js -->
<g id="edge6" class="edge">
<title>Gallery/GalleryLightbox.js&#45;&gt;Gallery/GalleryLoader.js</title>
<path fill="none" stroke="#757575" d="M589.52,-904.03C613.82,-908.99 642.38,-914.81 667.67,-919.97"/>
<polygon fill="#757575" stroke="#757575" points="667.05,-923.42 677.55,-921.99 668.45,-916.56 667.05,-923.42"/>
</g>
<!-- Gallery/GalleryScroll.js -->
<g id="node12" class="node">
<title>Gallery/GalleryScroll.js</title>
<path fill="none" stroke="#cfffac" d="M804.83,-904C804.83,-904 665.17,-904 665.17,-904 661.33,-904 657.5,-900.17 657.5,-896.33 657.5,-896.33 657.5,-888.67 657.5,-888.67 657.5,-884.83 661.33,-881 665.17,-881 665.17,-881 804.83,-881 804.83,-881 808.67,-881 812.5,-884.83 812.5,-888.67 812.5,-888.67 812.5,-896.33 812.5,-896.33 812.5,-900.17 808.67,-904 804.83,-904"/>
<text text-anchor="middle" x="735" y="-888.8" font-family="Arial" font-size="14.00" fill="#cfffac">Gallery/GalleryScroll.js</text>
</g>
<!-- Gallery/GalleryLightbox.js&#45;&gt;Gallery/GalleryScroll.js -->
<g id="edge7" class="edge">
<title>Gallery/GalleryLightbox.js&#45;&gt;Gallery/GalleryScroll.js</title>
<path fill="none" stroke="#757575" d="M618.24,-892.5C627.75,-892.5 637.44,-892.5 646.97,-892.5"/>
<polygon fill="#757575" stroke="#757575" points="647.23,-896 657.23,-892.5 647.23,-889 647.23,-896"/>
</g>
<!-- Gallery/index.js -->
<g id="node13" class="node">
<title>Gallery/index.js</title>
<path fill="none" stroke="#c6c5fe" d="M213.83,-925C213.83,-925 119.17,-925 119.17,-925 115.33,-925 111.5,-921.17 111.5,-917.33 111.5,-917.33 111.5,-909.67 111.5,-909.67 111.5,-905.83 115.33,-902 119.17,-902 119.17,-902 213.83,-902 213.83,-902 217.67,-902 221.5,-905.83 221.5,-909.67 221.5,-909.67 221.5,-917.33 221.5,-917.33 221.5,-921.17 217.67,-925 213.83,-925"/>
<text text-anchor="middle" x="166.5" y="-909.8" font-family="Arial" font-size="14.00" fill="#c6c5fe">Gallery/index.js</text>
</g>
<!-- Gallery/index.js&#45;&gt;Gallery/Gallery.js -->
<g id="edge8" class="edge">
<title>Gallery/index.js&#45;&gt;Gallery/Gallery.js</title>
<path fill="none" stroke="#757575" d="M221.92,-913.5C237.18,-913.5 253.98,-913.5 269.99,-913.5"/>
<polygon fill="#757575" stroke="#757575" points="270.37,-917 280.37,-913.5 270.37,-910 270.37,-917"/>
</g>
<!-- LiveChat.js -->
<g id="node14" class="node">
<title>LiveChat.js</title>
<path fill="none" stroke="#cfffac" d="M200.33,-638C200.33,-638 132.67,-638 132.67,-638 128.83,-638 125,-634.17 125,-630.33 125,-630.33 125,-622.67 125,-622.67 125,-618.83 128.83,-615 132.67,-615 132.67,-615 200.33,-615 200.33,-615 204.17,-615 208,-618.83 208,-622.67 208,-622.67 208,-630.33 208,-630.33 208,-634.17 204.17,-638 200.33,-638"/>
<text text-anchor="middle" x="166.5" y="-622.8" font-family="Arial" font-size="14.00" fill="#cfffac">LiveChat.js</text>
</g>
<!-- Picture.js -->
<g id="node15" class="node">
<title>Picture.js</title>
<path fill="none" stroke="#c6c5fe" d="M194.83,-187C194.83,-187 138.17,-187 138.17,-187 134.33,-187 130.5,-183.17 130.5,-179.33 130.5,-179.33 130.5,-171.67 130.5,-171.67 130.5,-167.83 134.33,-164 138.17,-164 138.17,-164 194.83,-164 194.83,-164 198.67,-164 202.5,-167.83 202.5,-171.67 202.5,-171.67 202.5,-179.33 202.5,-179.33 202.5,-183.17 198.67,-187 194.83,-187"/>
<text text-anchor="middle" x="166.5" y="-171.8" font-family="Arial" font-size="14.00" fill="#c6c5fe">Picture.js</text>
</g>
<!-- Picture.js&#45;&gt;ComponentNotice.js -->
<g id="edge9" class="edge">
<title>Picture.js&#45;&gt;ComponentNotice.js</title>
<path fill="none" stroke="#757575" d="M202.54,-181.1C213.79,-184.21 225.73,-189.03 235,-196.5 289.4,-240.31 320.64,-320.53 333.11,-358.92"/>
<polygon fill="#757575" stroke="#757575" points="329.8,-360.08 336.13,-368.57 336.48,-357.99 329.8,-360.08"/>
</g>
<!-- Slider/index.js -->
<g id="node16" class="node">
<title>Slider/index.js</title>
<path fill="none" stroke="#cfffac" d="M209.33,-556C209.33,-556 123.67,-556 123.67,-556 119.83,-556 116,-552.17 116,-548.33 116,-548.33 116,-540.67 116,-540.67 116,-536.83 119.83,-533 123.67,-533 123.67,-533 209.33,-533 209.33,-533 213.17,-533 217,-536.83 217,-540.67 217,-540.67 217,-548.33 217,-548.33 217,-552.17 213.17,-556 209.33,-556"/>
<text text-anchor="middle" x="166.5" y="-540.8" font-family="Arial" font-size="14.00" fill="#cfffac">Slider/index.js</text>
</g>
<!-- SoundCloud.js -->
<g id="node17" class="node">
<title>SoundCloud.js</title>
<path fill="none" stroke="#cfffac" d="M210.83,-515C210.83,-515 122.17,-515 122.17,-515 118.33,-515 114.5,-511.17 114.5,-507.33 114.5,-507.33 114.5,-499.67 114.5,-499.67 114.5,-495.83 118.33,-492 122.17,-492 122.17,-492 210.83,-492 210.83,-492 214.67,-492 218.5,-495.83 218.5,-499.67 218.5,-499.67 218.5,-507.33 218.5,-507.33 218.5,-511.17 214.67,-515 210.83,-515"/>
<text text-anchor="middle" x="166.5" y="-499.8" font-family="Arial" font-size="14.00" fill="#cfffac">SoundCloud.js</text>
</g>
<!-- Source.js -->
<g id="node18" class="node">
<title>Source.js</title>
<path fill="none" stroke="#c6c5fe" d="M195.33,-146C195.33,-146 137.67,-146 137.67,-146 133.83,-146 130,-142.17 130,-138.33 130,-138.33 130,-130.67 130,-130.67 130,-126.83 133.83,-123 137.67,-123 137.67,-123 195.33,-123 195.33,-123 199.17,-123 203,-126.83 203,-130.67 203,-130.67 203,-138.33 203,-138.33 203,-142.17 199.17,-146 195.33,-146"/>
<text text-anchor="middle" x="166.5" y="-130.8" font-family="Arial" font-size="14.00" fill="#c6c5fe">Source.js</text>
</g>
<!-- Source.js&#45;&gt;ComponentNotice.js -->
<g id="edge10" class="edge">
<title>Source.js&#45;&gt;ComponentNotice.js</title>
<path fill="none" stroke="#757575" d="M203.25,-139.76C214.42,-142.85 226.13,-147.74 235,-155.5 298.8,-211.32 326.27,-314.31 335.56,-358.94"/>
<polygon fill="#757575" stroke="#757575" points="332.17,-359.83 337.54,-368.96 339.03,-358.47 332.17,-359.83"/>
</g>
<!-- SvgShape.js -->
<g id="node19" class="node">
<title>SvgShape.js</title>
<path fill="none" stroke="#cfffac" d="M204.83,-433C204.83,-433 128.17,-433 128.17,-433 124.33,-433 120.5,-429.17 120.5,-425.33 120.5,-425.33 120.5,-417.67 120.5,-417.67 120.5,-413.83 124.33,-410 128.17,-410 128.17,-410 204.83,-410 204.83,-410 208.67,-410 212.5,-413.83 212.5,-417.67 212.5,-417.67 212.5,-425.33 212.5,-425.33 212.5,-429.17 208.67,-433 204.83,-433"/>
<text text-anchor="middle" x="166.5" y="-417.8" font-family="Arial" font-size="14.00" fill="#cfffac">SvgShape.js</text>
</g>
<!-- Table.js -->
<g id="node20" class="node">
<title>Table.js</title>
<path fill="none" stroke="#c6c5fe" d="M189.83,-802C189.83,-802 143.17,-802 143.17,-802 139.33,-802 135.5,-798.17 135.5,-794.33 135.5,-794.33 135.5,-786.67 135.5,-786.67 135.5,-782.83 139.33,-779 143.17,-779 143.17,-779 189.83,-779 189.83,-779 193.67,-779 197.5,-782.83 197.5,-786.67 197.5,-786.67 197.5,-794.33 197.5,-794.33 197.5,-798.17 193.67,-802 189.83,-802"/>
<text text-anchor="middle" x="166.5" y="-786.8" font-family="Arial" font-size="14.00" fill="#c6c5fe">Table.js</text>
</g>
<!-- Table.js&#45;&gt;ComponentNotice.js -->
<g id="edge11" class="edge">
<title>Table.js&#45;&gt;ComponentNotice.js</title>
<path fill="none" stroke="#757575" d="M197.79,-788.08C210.83,-785.54 225.28,-780.48 235,-770.5 287.8,-716.29 325.87,-476.09 336.5,-402.2"/>
<polygon fill="#757575" stroke="#757575" points="339.98,-402.58 337.92,-392.19 333.05,-401.6 339.98,-402.58"/>
</g>
<!-- Test/index.js -->
<g id="node21" class="node">
<title>Test/index.js</title>
<path fill="none" stroke="#cfffac" d="M204.33,-351C204.33,-351 128.67,-351 128.67,-351 124.83,-351 121,-347.17 121,-343.33 121,-343.33 121,-335.67 121,-335.67 121,-331.83 124.83,-328 128.67,-328 128.67,-328 204.33,-328 204.33,-328 208.17,-328 212,-331.83 212,-335.67 212,-335.67 212,-343.33 212,-343.33 212,-347.17 208.17,-351 204.33,-351"/>
<text text-anchor="middle" x="166.5" y="-335.8" font-family="Arial" font-size="14.00" fill="#cfffac">Test/index.js</text>
</g>
<!-- Timeline.js -->
<g id="node22" class="node">
<title>Timeline.js</title>
<path fill="none" stroke="#cfffac" d="M199.83,-310C199.83,-310 133.17,-310 133.17,-310 129.33,-310 125.5,-306.17 125.5,-302.33 125.5,-302.33 125.5,-294.67 125.5,-294.67 125.5,-290.83 129.33,-287 133.17,-287 133.17,-287 199.83,-287 199.83,-287 203.67,-287 207.5,-290.83 207.5,-294.67 207.5,-294.67 207.5,-302.33 207.5,-302.33 207.5,-306.17 203.67,-310 199.83,-310"/>
<text text-anchor="middle" x="166.5" y="-294.8" font-family="Arial" font-size="14.00" fill="#cfffac">Timeline.js</text>
</g>
<!-- Timer.js -->
<g id="node23" class="node">
<title>Timer.js</title>
<path fill="none" stroke="#c6c5fe" d="M191.33,-679C191.33,-679 141.67,-679 141.67,-679 137.83,-679 134,-675.17 134,-671.33 134,-671.33 134,-663.67 134,-663.67 134,-659.83 137.83,-656 141.67,-656 141.67,-656 191.33,-656 191.33,-656 195.17,-656 199,-659.83 199,-663.67 199,-663.67 199,-671.33 199,-671.33 199,-675.17 195.17,-679 191.33,-679"/>
<text text-anchor="middle" x="166.5" y="-663.8" font-family="Arial" font-size="14.00" fill="#c6c5fe">Timer.js</text>
</g>
<!-- Timer.js&#45;&gt;ComponentNotice.js -->
<g id="edge12" class="edge">
<title>Timer.js&#45;&gt;ComponentNotice.js</title>
<path fill="none" stroke="#757575" d="M199,-664.2C211.49,-661.48 225.19,-656.51 235,-647.5 308.96,-579.57 331.25,-452.89 337.37,-402.24"/>
<polygon fill="#757575" stroke="#757575" points="340.87,-402.44 338.5,-392.11 333.92,-401.67 340.87,-402.44"/>
</g>
<!-- Tooltip.js -->
<g id="node24" class="node">
<title>Tooltip.js</title>
<path fill="none" stroke="#c6c5fe" d="M193.33,-597C193.33,-597 139.67,-597 139.67,-597 135.83,-597 132,-593.17 132,-589.33 132,-589.33 132,-581.67 132,-581.67 132,-577.83 135.83,-574 139.67,-574 139.67,-574 193.33,-574 193.33,-574 197.17,-574 201,-577.83 201,-581.67 201,-581.67 201,-589.33 201,-589.33 201,-593.17 197.17,-597 193.33,-597"/>
<text text-anchor="middle" x="166.5" y="-581.8" font-family="Arial" font-size="14.00" fill="#c6c5fe">Tooltip.js</text>
</g>
<!-- Tooltip.js&#45;&gt;ComponentNotice.js -->
<g id="edge13" class="edge">
<title>Tooltip.js&#45;&gt;ComponentNotice.js</title>
<path fill="none" stroke="#757575" d="M201.15,-580.84C212.8,-577.92 225.34,-573.19 235,-565.5 290.13,-521.61 321.18,-440.2 333.38,-401.71"/>
<polygon fill="#757575" stroke="#757575" points="336.75,-402.65 336.33,-392.06 330.06,-400.6 336.75,-402.65"/>
</g>
<!-- Track.js -->
<g id="node25" class="node">
<title>Track.js</title>
<path fill="none" stroke="#c6c5fe" d="M190.83,-474C190.83,-474 142.17,-474 142.17,-474 138.33,-474 134.5,-470.17 134.5,-466.33 134.5,-466.33 134.5,-458.67 134.5,-458.67 134.5,-454.83 138.33,-451 142.17,-451 142.17,-451 190.83,-451 190.83,-451 194.67,-451 198.5,-454.83 198.5,-458.67 198.5,-458.67 198.5,-466.33 198.5,-466.33 198.5,-470.17 194.67,-474 190.83,-474"/>
<text text-anchor="middle" x="166.5" y="-458.8" font-family="Arial" font-size="14.00" fill="#c6c5fe">Track.js</text>
</g>
<!-- Track.js&#45;&gt;ComponentNotice.js -->
<g id="edge14" class="edge">
<title>Track.js&#45;&gt;ComponentNotice.js</title>
<path fill="none" stroke="#757575" d="M198.65,-455.01C210.28,-451.76 223.46,-447.54 235,-442.5 263.46,-430.07 293.74,-411.43 314.34,-397.84"/>
<polygon fill="#757575" stroke="#757575" points="316.45,-400.64 322.82,-392.17 312.56,-394.82 316.45,-400.64"/>
</g>
<!-- Video.js -->
<g id="node26" class="node">
<title>Video.js</title>
<path fill="none" stroke="#c6c5fe" d="M191.33,-228C191.33,-228 141.67,-228 141.67,-228 137.83,-228 134,-224.17 134,-220.33 134,-220.33 134,-212.67 134,-212.67 134,-208.83 137.83,-205 141.67,-205 141.67,-205 191.33,-205 191.33,-205 195.17,-205 199,-208.83 199,-212.67 199,-212.67 199,-220.33 199,-220.33 199,-224.17 195.17,-228 191.33,-228"/>
<text text-anchor="middle" x="166.5" y="-212.8" font-family="Arial" font-size="14.00" fill="#c6c5fe">Video.js</text>
</g>
<!-- Video.js&#45;&gt;ComponentNotice.js -->
<g id="edge15" class="edge">
<title>Video.js&#45;&gt;ComponentNotice.js</title>
<path fill="none" stroke="#757575" d="M199.31,-221.98C211.28,-225.13 224.52,-230.01 235,-237.5 280.59,-270.1 314.24,-328.77 329.84,-359.86"/>
<polygon fill="#757575" stroke="#757575" points="326.72,-361.47 334.26,-368.92 333.02,-358.4 326.72,-361.47"/>
</g>
<!-- Vimeo.js -->
<g id="node27" class="node">
<title>Vimeo.js</title>
<path fill="none" stroke="#cfffac" d="M193.33,-105C193.33,-105 139.67,-105 139.67,-105 135.83,-105 132,-101.17 132,-97.33 132,-97.33 132,-89.67 132,-89.67 132,-85.83 135.83,-82 139.67,-82 139.67,-82 193.33,-82 193.33,-82 197.17,-82 201,-85.83 201,-89.67 201,-89.67 201,-97.33 201,-97.33 201,-101.17 197.17,-105 193.33,-105"/>
<text text-anchor="middle" x="166.5" y="-89.8" font-family="Arial" font-size="14.00" fill="#cfffac">Vimeo.js</text>
</g>
<!-- YandexMap.js -->
<g id="node28" class="node">
<title>YandexMap.js</title>
<path fill="none" stroke="#cfffac" d="M209.83,-64C209.83,-64 123.17,-64 123.17,-64 119.33,-64 115.5,-60.17 115.5,-56.33 115.5,-56.33 115.5,-48.67 115.5,-48.67 115.5,-44.83 119.33,-41 123.17,-41 123.17,-41 209.83,-41 209.83,-41 213.67,-41 217.5,-44.83 217.5,-48.67 217.5,-48.67 217.5,-56.33 217.5,-56.33 217.5,-60.17 213.67,-64 209.83,-64"/>
<text text-anchor="middle" x="166.5" y="-48.8" font-family="Arial" font-size="14.00" fill="#cfffac">YandexMap.js</text>
</g>
<!-- YouTube.js -->
<g id="node29" class="node">
<title>YouTube.js</title>
<path fill="none" stroke="#cfffac" d="M200.83,-23C200.83,-23 132.17,-23 132.17,-23 128.33,-23 124.5,-19.17 124.5,-15.33 124.5,-15.33 124.5,-7.67 124.5,-7.67 124.5,-3.83 128.33,0 132.17,0 132.17,0 200.83,0 200.83,0 204.67,0 208.5,-3.83 208.5,-7.67 208.5,-7.67 208.5,-15.33 208.5,-15.33 208.5,-19.17 204.67,-23 200.83,-23"/>
<text text-anchor="middle" x="166.5" y="-7.8" font-family="Arial" font-size="14.00" fill="#cfffac">YouTube.js</text>
</g>
<!-- index.js -->
<g id="node30" class="node">
<title>index.js</title>
<path fill="none" stroke="#c6c5fe" d="M54.33,-474C54.33,-474 7.67,-474 7.67,-474 3.83,-474 0,-470.17 0,-466.33 0,-466.33 0,-458.67 0,-458.67 0,-454.83 3.83,-451 7.67,-451 7.67,-451 54.33,-451 54.33,-451 58.17,-451 62,-454.83 62,-458.67 62,-458.67 62,-466.33 62,-466.33 62,-470.17 58.17,-474 54.33,-474"/>
<text text-anchor="middle" x="31" y="-458.8" font-family="Arial" font-size="14.00" fill="#c6c5fe">index.js</text>
</g>
<!-- index.js&#45;&gt;Audio.js -->
<g id="edge16" class="edge">
<title>index.js&#45;&gt;Audio.js</title>
<path fill="none" stroke="#757575" d="M41.56,-450.96C53.46,-437.31 75.03,-414.77 98,-401.5 105.95,-396.91 115.02,-393.2 123.88,-390.26"/>
<polygon fill="#757575" stroke="#757575" points="125.17,-393.53 133.72,-387.26 123.13,-386.83 125.17,-393.53"/>
</g>
<!-- index.js&#45;&gt;BeforeAfterImage.js -->
<g id="edge17" class="edge">
<title>index.js&#45;&gt;BeforeAfterImage.js</title>
<path fill="none" stroke="#757575" d="M32.36,-474.13C34.39,-532.64 46.3,-794.17 98,-852.5 98.64,-853.22 99.3,-853.92 99.99,-854.59"/>
<polygon fill="#757575" stroke="#757575" points="98.05,-857.51 108.1,-860.87 102.34,-851.98 98.05,-857.51"/>
</g>
<!-- index.js&#45;&gt;BgImageParallax.js -->
<g id="edge18" class="edge">
<title>index.js&#45;&gt;BgImageParallax.js</title>
<path fill="none" stroke="#757575" d="M32.62,-474.35C35.75,-529.44 51.49,-760.03 98,-811.5 98.76,-812.34 99.55,-813.14 100.37,-813.91"/>
<polygon fill="#757575" stroke="#757575" points="98.38,-816.8 108.48,-820 102.58,-811.2 98.38,-816.8"/>
</g>
<!-- index.js&#45;&gt;Collapse.js -->
<g id="edge19" class="edge">
<title>index.js&#45;&gt;Collapse.js</title>
<path fill="none" stroke="#757575" d="M32.72,-450.67C35.32,-418.28 47.03,-327.34 98,-278.5 102.94,-273.77 108.93,-270.1 115.28,-267.25"/>
<polygon fill="#757575" stroke="#757575" points="116.66,-270.48 124.76,-263.65 114.17,-263.93 116.66,-270.48"/>
</g>
<!-- index.js&#45;&gt;Disqus.js -->
<g id="edge20" class="edge">
<title>index.js&#45;&gt;Disqus.js</title>
<path fill="none" stroke="#757575" d="M33.36,-474.28C38.95,-520.86 61.64,-691.43 98,-729.5 104.26,-736.05 112.55,-740.48 121.17,-743.48"/>
<polygon fill="#757575" stroke="#757575" points="120.38,-746.89 130.96,-746.28 122.31,-740.16 120.38,-746.89"/>
</g>
<!-- index.js&#45;&gt;DisqusComment.js -->
<g id="edge21" class="edge">
<title>index.js&#45;&gt;DisqusComment.js</title>
<path fill="none" stroke="#757575" d="M31.76,-474.01C31.65,-510.78 36.41,-626.67 98,-688.5 98.92,-689.43 99.88,-690.31 100.88,-691.15"/>
<polygon fill="#757575" stroke="#757575" points="98.93,-694.06 109.15,-696.85 102.9,-688.29 98.93,-694.06"/>
</g>
<!-- index.js&#45;&gt;Gallery/index.js -->
<g id="edge22" class="edge">
<title>index.js&#45;&gt;Gallery/index.js</title>
<path fill="none" stroke="#757575" d="M32.15,-474.1C33.2,-536.12 41.15,-828.33 98,-893.5 99.39,-895.09 100.89,-896.55 102.49,-897.91"/>
<polygon fill="#757575" stroke="#757575" points="100.96,-901.09 111.22,-903.76 104.86,-895.28 100.96,-901.09"/>
</g>
<!-- index.js&#45;&gt;LiveChat.js -->
<g id="edge23" class="edge">
<title>index.js&#45;&gt;LiveChat.js</title>
<path fill="none" stroke="#757575" d="M33.97,-474.16C39.2,-501.49 56.04,-570.1 98,-606.5 103.09,-610.91 109.11,-614.35 115.43,-617.03"/>
<polygon fill="#757575" stroke="#757575" points="114.24,-620.32 124.83,-620.44 116.63,-613.74 114.24,-620.32"/>
</g>
<!-- index.js&#45;&gt;Picture.js -->
<g id="edge24" class="edge">
<title>index.js&#45;&gt;Picture.js</title>
<path fill="none" stroke="#757575" d="M33.38,-450.77C39.05,-404.43 62.01,-234.66 98,-196.5 104.12,-190.01 112.2,-185.52 120.64,-182.4"/>
<polygon fill="#757575" stroke="#757575" points="121.71,-185.74 130.23,-179.44 119.65,-179.05 121.71,-185.74"/>
</g>
<!-- index.js&#45;&gt;Slider/index.js -->
<g id="edge25" class="edge">
<title>index.js&#45;&gt;Slider/index.js</title>
<path fill="none" stroke="#757575" d="M41.49,-474.29C53.32,-488.22 74.82,-511.19 98,-524.5 100.86,-526.14 103.87,-527.66 106.96,-529.06"/>
<polygon fill="#757575" stroke="#757575" points="105.85,-532.39 116.43,-532.93 108.5,-525.91 105.85,-532.39"/>
</g>
<!-- index.js&#45;&gt;SoundCloud.js -->
<g id="edge26" class="edge">
<title>index.js&#45;&gt;SoundCloud.js</title>
<path fill="none" stroke="#757575" d="M62.19,-472.25C73.42,-475.83 86.28,-479.9 98,-483.5 103.98,-485.34 110.27,-487.24 116.5,-489.11"/>
<polygon fill="#757575" stroke="#757575" points="115.61,-492.49 126.2,-492 117.62,-485.79 115.61,-492.49"/>
</g>
<!-- index.js&#45;&gt;Source.js -->
<g id="edge27" class="edge">
<title>index.js&#45;&gt;Source.js</title>
<path fill="none" stroke="#757575" d="M32.96,-450.75C37.35,-400.02 56.99,-200.37 98,-155.5 103.89,-149.05 111.72,-144.57 119.96,-141.45"/>
<polygon fill="#757575" stroke="#757575" points="121.23,-144.72 129.73,-138.39 119.14,-138.04 121.23,-144.72"/>
</g>
<!-- index.js&#45;&gt;SvgShape.js -->
<g id="edge28" class="edge">
<title>index.js&#45;&gt;SvgShape.js</title>
<path fill="none" stroke="#757575" d="M62.29,-453.2C78.73,-448.15 99.41,-441.8 117.94,-436.11"/>
<polygon fill="#757575" stroke="#757575" points="119.15,-439.4 127.68,-433.11 117.1,-432.7 119.15,-439.4"/>
</g>
<!-- index.js&#45;&gt;Table.js -->
<g id="edge29" class="edge">
<title>index.js&#45;&gt;Table.js</title>
<path fill="none" stroke="#757575" d="M32.94,-474.3C37.24,-525.25 56.57,-725.76 98,-770.5 105.16,-778.24 115.16,-783.03 125.27,-785.98"/>
<polygon fill="#757575" stroke="#757575" points="124.78,-789.46 135.32,-788.37 126.39,-782.65 124.78,-789.46"/>
</g>
<!-- index.js&#45;&gt;Test/index.js -->
<g id="edge30" class="edge">
<title>index.js&#45;&gt;Test/index.js</title>
<path fill="none" stroke="#757575" d="M36.4,-450.82C44.96,-429.64 65.91,-384.85 98,-360.5 102.11,-357.38 106.69,-354.72 111.48,-352.45"/>
<polygon fill="#757575" stroke="#757575" points="112.97,-355.62 120.87,-348.55 110.29,-349.16 112.97,-355.62"/>
</g>
<!-- index.js&#45;&gt;Timeline.js -->
<g id="edge31" class="edge">
<title>index.js&#45;&gt;Timeline.js</title>
<path fill="none" stroke="#757575" d="M34.03,-450.96C39.39,-423.9 56.48,-355.92 98,-319.5 103.15,-314.99 109.25,-311.44 115.66,-308.66"/>
<polygon fill="#757575" stroke="#757575" points="117.03,-311.88 125.18,-305.11 114.58,-305.33 117.03,-311.88"/>
</g>
<!-- index.js&#45;&gt;Timer.js -->
<g id="edge32" class="edge">
<title>index.js&#45;&gt;Timer.js</title>
<path fill="none" stroke="#757575" d="M32.66,-474.43C35.12,-507.08 46.49,-598.73 98,-647.5 105.18,-654.3 114.56,-658.8 124.04,-661.77"/>
<polygon fill="#757575" stroke="#757575" points="123.3,-665.19 133.86,-664.35 125.08,-658.42 123.3,-665.19"/>
</g>
<!-- index.js&#45;&gt;Tooltip.js -->
<g id="edge33" class="edge">
<title>index.js&#45;&gt;Tooltip.js</title>
<path fill="none" stroke="#757575" d="M36.2,-474C44.58,-495.31 65.4,-541 98,-565.5 105.02,-570.78 113.42,-574.67 121.87,-577.54"/>
<polygon fill="#757575" stroke="#757575" points="121.15,-580.97 131.74,-580.45 123.14,-574.26 121.15,-580.97"/>
</g>
<!-- index.js&#45;&gt;Track.js -->
<g id="edge34" class="edge">
<title>index.js&#45;&gt;Track.js</title>
<path fill="none" stroke="#757575" d="M62.29,-462.5C80.64,-462.5 104.28,-462.5 124.3,-462.5"/>
<polygon fill="#757575" stroke="#757575" points="124.4,-466 134.4,-462.5 124.4,-459 124.4,-466"/>
</g>
<!-- index.js&#45;&gt;Video.js -->
<g id="edge35" class="edge">
<title>index.js&#45;&gt;Video.js</title>
<path fill="none" stroke="#757575" d="M31.81,-450.82C31.88,-414.03 37.19,-299.31 98,-237.5 105.03,-230.36 114.44,-225.64 124,-222.52"/>
<polygon fill="#757575" stroke="#757575" points="125.19,-225.82 133.92,-219.81 123.35,-219.06 125.19,-225.82"/>
</g>
<!-- index.js&#45;&gt;Vimeo.js -->
<g id="edge36" class="edge">
<title>index.js&#45;&gt;Vimeo.js</title>
<path fill="none" stroke="#757575" d="M32.64,-450.7C35.86,-395.83 51.95,-166.13 98,-114.5 104.3,-107.44 112.93,-102.72 121.91,-99.59"/>
<polygon fill="#757575" stroke="#757575" points="123.07,-102.9 131.7,-96.76 121.13,-96.17 123.07,-102.9"/>
</g>
<!-- index.js&#45;&gt;YandexMap.js -->
<g id="edge37" class="edge">
<title>index.js&#45;&gt;YandexMap.js</title>
<path fill="none" stroke="#757575" d="M32.36,-450.87C34.39,-392.36 46.3,-130.83 98,-72.5 100.42,-69.76 103.2,-67.4 106.22,-65.34"/>
<polygon fill="#757575" stroke="#757575" points="108.19,-68.25 115.26,-60.36 104.81,-62.12 108.19,-68.25"/>
</g>
<!-- index.js&#45;&gt;YouTube.js -->
<g id="edge38" class="edge">
<title>index.js&#45;&gt;YouTube.js</title>
<path fill="none" stroke="#757575" d="M32.15,-450.9C33.2,-388.88 41.15,-96.67 98,-31.5 102.53,-26.3 108.35,-22.42 114.66,-19.54"/>
<polygon fill="#757575" stroke="#757575" points="116.03,-22.76 124.17,-15.98 113.58,-16.2 116.03,-22.76"/>
</g>
</g>
</svg>
